<svg width="32" height="18" viewBox="0 0 32 18" fill="none" xmlns="http://www.w3.org/2000/svg">
<path d="M25 10H7C6.44 10 6 9.56 6 9C6 8.44 6.44 8 7 8H25C25.56 8 26 8.44 26 9C26 9.56 25.56 10 25 10Z" fill="black"/>
<path d="M12 17C11.8688 17.0016 11.7388 16.9757 11.6183 16.9241C11.4977 16.8724 11.3893 16.7961 11.3 16.7L4.3 9.7C3.9 9.3 3.9 8.68 4.3 8.28L11.3 1.3C11.7 0.9 12.32 0.9 12.72 1.3C13.12 1.7 13.12 2.32 12.72 2.72L6.42 9.02L12.72 15.32C13.12 15.72 13.12 16.34 12.72 16.74C12.52 16.94 12.26 17.04 12.02 17.04L12 17Z" fill="black"/>
</svg>
